<svg width="24" height="24" viewBox="0 0 24 24" fill="none" xmlns="http://www.w3.org/2000/svg">
<path d="M22.56 12.25C22.56 11.47 22.49 10.72 22.36 10H12V14.255H17.92C17.665 15.63 16.89 16.795 15.725 17.575V20.335H19.28C21.36 18.42 22.56 15.6 22.56 12.25Z" fill="#4285F4"/>
<path d="M12 23C15.24 23 17.955 21.925 19.28 20.335L15.725 17.575C14.745 18.235 13.48 18.625 12 18.625C8.875 18.625 6.23 16.69 5.325 13.975H1.64V16.8C2.96 19.44 7.24 23 12 23Z" fill="#34A853"/>
<path d="M5.325 13.975C5.115 13.315 5 12.615 5 11.875S5.115 10.435 5.325 9.775V6.95H1.64C0.89 8.445 0.5 10.115 0.5 11.875S0.89 15.305 1.64 16.8L5.325 13.975Z" fill="#FBBC05"/>
<path d="M12 5.125C13.615 5.125 15.08 5.69 16.245 6.785L19.42 3.61C17.95 2.24 15.235 1.375 12 1.375C7.24 1.375 2.96 4.935 1.64 7.575L5.325 10.4C6.23 7.685 8.875 5.125 12 5.125Z" fill="#EA4335"/>
</svg>